<svg version="1.1" id="Layer_1" xmlns="http://www.w3.org/2000/svg" xmlns:xlink="http://www.w3.org/1999/xlink" x="0px" y="0px"
	 width="100%" viewBox="0 0 360 370" enable-background="new 0 0 360 370" xml:space="preserve">
<path fill="currentColor" opacity="1.000000" stroke="none" 
	d="
M0.999999,228.000000 
	C1.000000,227.250000 1.000000,226.500000 1.337605,225.663162 
	C2.120281,224.196106 2.722935,222.845306 2.986923,221.431274 
	C7.347714,198.073196 17.613533,177.730164 34.337109,160.824570 
	C39.487469,155.618149 45.281136,151.048096 50.780231,146.186646 
	C50.630417,145.894409 50.480602,145.602188 50.330788,145.309952 
	C35.320950,152.674088 20.311113,160.038223 5.179837,167.461929 
	C5.326987,166.843658 5.421969,166.203583 5.630476,165.602905 
	C19.073128,126.876717 41.696331,95.130348 76.535515,72.780945 
	C79.404343,70.940582 80.400299,69.271904 79.335716,65.967606 
	C78.219200,62.502148 77.668060,58.854530 76.869835,55.286522 
	C77.236870,55.031811 77.603905,54.777103 77.970947,54.522396 
	C85.485542,59.221745 93.000145,63.921093 100.942795,68.888130 
	C104.123482,60.428143 107.194901,52.258774 110.569244,43.283695 
	C112.682938,50.065754 114.537491,56.016327 116.351997,61.838383 
	C119.412064,55.830734 121.930763,49.461430 125.631630,43.875313 
	C139.159866,23.455664 158.841354,11.337212 181.581253,3.540562 
	C182.860779,3.101866 183.866730,1.865242 185.000000,0.999999 
	C186.714355,1.000000 188.428711,1.000000 190.548172,1.389845 
	C187.623337,15.828855 184.293396,29.878017 180.831696,44.060940 
	C180.574341,44.451031 180.606491,44.685738 180.583176,45.280281 
	C179.735443,49.776760 179.100922,53.891777 178.324753,58.240665 
	C178.196350,58.656345 178.209625,58.838154 178.112564,59.335709 
	C177.998108,60.095558 177.993988,60.539658 177.840927,61.202797 
	C177.704330,61.911842 177.716675,62.401848 177.634949,63.220062 
	C177.544067,63.998356 177.547272,64.448441 177.390228,65.185799 
	C177.372391,65.886810 177.514755,66.300560 177.657135,66.714294 
	C178.040436,66.126915 178.423752,65.539536 178.982605,64.613953 
	C180.128189,61.227024 181.098251,58.178291 182.317261,54.872883 
	C183.347488,52.067936 184.128769,49.519669 185.188293,46.765427 
	C202.503418,37.878998 219.540283,29.198551 237.844040,19.872616 
	C227.907028,42.402653 218.668854,63.348217 209.499756,84.137169 
	C218.814133,88.262314 228.086578,91.879181 236.901474,96.390160 
	C249.427505,102.800293 258.850891,111.616714 262.249756,126.500313 
	C264.272034,135.355865 269.420105,143.556244 273.632843,151.811356 
	C274.674713,153.852875 277.325897,155.674637 279.612793,156.380005 
	C292.793427,160.445465 306.230011,163.718170 319.298615,168.098572 
	C330.620361,171.893448 341.603790,176.717682 352.657349,181.279266 
	C355.588440,182.488861 358.227081,184.407120 361.000000,186.000000 
	C361.000000,188.700012 361.000000,191.400024 360.636597,194.551605 
	C359.165924,195.871887 357.931824,196.620209 356.973450,197.630188 
	C352.864227,201.960556 349.319916,206.983368 344.684265,210.627350 
	C332.692383,220.053894 320.475647,229.239380 307.901184,237.869110 
	C289.650909,250.394073 269.933929,254.880539 248.238861,247.366974 
	C242.985703,245.547653 237.212082,245.021515 231.621841,244.497635 
	C229.639008,244.311813 226.151443,245.475189 225.736298,246.781036 
	C225.141769,248.651077 226.048157,251.926453 227.522018,253.355728 
	C232.367218,258.054321 237.633209,262.352081 242.988632,266.477936 
	C245.779526,268.628021 249.096771,270.094910 253.057068,272.378204 
	C238.351440,272.685883 221.543259,266.211578 211.607285,256.904449 
	C202.422043,248.300552 201.958969,237.686157 210.555099,228.337631 
	C218.769333,219.404465 229.507980,217.437424 240.778610,218.978363 
	C250.301575,220.280350 259.631287,222.968170 269.065948,224.950134 
	C285.869354,228.480118 301.791138,225.960480 316.955475,217.980759 
	C319.898956,216.431854 321.000946,214.476929 320.512177,211.168015 
	C319.553864,204.680450 318.783783,198.160736 318.124756,191.635254 
	C317.831512,188.732025 316.960754,186.691010 313.780975,186.077332 
	C308.899567,185.135208 304.024414,184.126434 299.201752,182.924530 
	C294.755066,181.816330 290.381073,180.416473 285.975067,179.145065 
	C286.073517,178.807480 286.171967,178.469879 286.270386,178.132294 
	C291.346283,178.459305 296.422180,178.786316 301.815094,179.133759 
	C301.397247,178.322128 301.326691,177.918655 301.133057,177.846802 
	C280.427551,170.161179 260.241760,160.989899 238.354294,156.713776 
	C233.141068,155.695282 227.139862,154.294861 223.425446,150.939697 
	C215.709351,143.969910 209.282227,135.573135 202.677902,127.638184 
	C204.676941,127.932808 206.345428,128.280869 207.966156,128.783081 
	C218.951324,132.186951 229.926407,135.623383 241.099121,139.322311 
	C243.831726,141.837250 246.369965,144.079163 248.908203,146.321075 
	C249.322571,145.869659 249.736954,145.418243 250.151337,144.966812 
	C248.170090,142.620193 246.188858,140.273575 244.125580,137.589600 
	C241.041321,133.698364 238.039093,130.144485 234.630859,126.109993 
	C234.172150,127.930702 233.838409,129.255341 233.497360,130.609039 
	C222.642517,127.814323 211.807632,125.024742 200.645508,122.046005 
	C197.070023,120.956825 193.821762,120.056816 189.244598,118.788597 
	C193.738586,125.947609 197.424927,131.820038 201.723999,138.668549 
	C178.368362,130.844009 155.856033,129.478424 132.032791,134.369141 
	C146.823944,141.511444 159.225113,150.318832 169.478699,163.030624 
	C167.678146,163.030624 166.594223,163.072189 165.514236,163.024490 
	C143.104004,162.034866 120.903030,162.925491 99.507095,170.629089 
	C97.204041,171.458313 95.120872,172.898239 92.935707,174.054886 
	C93.046982,174.559494 93.158257,175.064117 93.269539,175.568726 
	C124.616966,179.302155 156.384491,180.560837 186.844406,189.911957 
	C177.691742,192.559998 168.723068,194.530579 160.224808,197.744888 
	C143.099579,204.222153 128.142197,213.943008 118.462730,230.078781 
	C109.492706,245.031876 112.900948,259.993408 126.759903,270.525238 
	C136.258209,277.743286 147.523605,280.797943 158.298538,285.076904 
	C202.264236,302.536621 239.033707,330.043091 270.169250,365.373596 
	C271.133453,366.467743 271.571991,368.025116 272.113251,369.087219 
	C258.830322,363.022949 246.039551,356.188110 232.545914,351.289337 
	C217.614990,345.868774 202.040863,342.219849 186.519623,337.584137 
	C185.879028,337.343323 185.465668,337.317780 184.684616,337.091187 
	C178.832230,335.784851 173.347534,334.679535 167.680145,333.440002 
	C167.497452,333.305786 167.044220,333.293457 166.697388,333.080780 
	C153.784271,329.163574 140.983704,326.097076 128.711823,321.590820 
	C113.838989,316.129456 101.201607,306.715118 89.177559,295.472687 
	C89.051292,296.873718 88.982246,297.639923 88.691803,298.703491 
	C88.425018,299.976318 88.379631,300.951721 88.213165,302.329163 
	C88.276482,303.543182 88.460876,304.355194 88.535927,305.412781 
	C88.581017,305.967773 88.735451,306.277161 88.804077,306.943970 
	C90.939949,319.368347 99.703598,327.727081 106.521339,337.480347 
	C105.415283,337.738037 104.868225,338.062988 104.489616,337.925201 
	C90.687630,332.901581 76.372589,328.918427 63.241322,322.510834 
	C45.205391,313.709991 31.123295,300.666840 28.705849,278.541016 
	C28.714411,276.433838 28.699091,274.747559 28.833057,272.698975 
	C29.047556,270.799225 29.112768,269.261719 29.396196,267.501770 
	C29.642355,266.869232 29.670298,266.459198 29.853298,265.670868 
	C33.285923,256.608582 36.563492,247.924576 39.841057,239.240555 
	C39.432255,238.925339 39.023457,238.610138 38.614655,238.294922 
	C24.223568,249.641937 15.228807,265.448029 5.492698,280.901855 
	C4.841964,278.746796 4.270438,276.854065 3.716269,274.647064 
	C3.551988,273.974121 3.370349,273.615479 3.325984,272.922729 
	C2.642172,271.725800 1.821085,270.862885 0.999999,270.000000 
	C1.000000,256.645782 1.000000,243.291550 1.281733,229.364105 
	C1.375644,228.527267 1.187821,228.263626 0.999999,228.000000 
z"/>
<path fill="currentColor" opacity="0" stroke="none" 
	d="
M0.999999,270.468658 
	C1.821085,270.862885 2.642172,271.725800 3.338870,273.227844 
	C3.375958,274.231812 3.537436,274.596558 3.698913,274.961334 
	C4.270438,276.854065 4.841964,278.746796 5.492698,280.901855 
	C15.228807,265.448029 24.223568,249.641937 38.614655,238.294922 
	C39.023457,238.610138 39.432255,238.925339 39.841057,239.240555 
	C36.563492,247.924576 33.285923,256.608582 29.694967,265.922729 
	C29.313711,266.943329 29.245848,267.333771 29.177980,267.724243 
	C29.112768,269.261719 29.047556,270.799225 28.658966,272.898560 
	C28.451046,275.294220 28.566504,277.128082 28.681963,278.961914 
	C31.123295,300.666840 45.205391,313.709991 63.241322,322.510834 
	C76.372589,328.918427 90.687630,332.901581 104.489616,337.925201 
	C104.868225,338.062988 105.415283,337.738037 106.521339,337.480347 
	C99.703598,327.727081 90.939949,319.368347 88.795029,306.699951 
	C88.851685,305.774567 88.776184,305.464111 88.645264,305.167175 
	C88.460876,304.355194 88.276482,303.543182 88.393822,302.016785 
	C88.768105,300.336945 88.840652,299.371552 88.913208,298.406128 
	C88.982246,297.639923 89.051292,296.873718 89.177559,295.472687 
	C101.201607,306.715118 113.838989,316.129456 128.711823,321.590820 
	C140.983704,326.097076 153.784271,329.163574 166.767487,333.185059 
	C167.184402,333.501984 167.507782,333.658966 167.507782,333.658966 
	C167.507782,333.658966 167.862854,333.574219 167.862854,333.574219 
	C173.347534,334.679535 178.832230,335.784851 184.939178,337.250854 
	C185.956573,337.674164 186.351715,337.736786 186.746857,337.799408 
	C202.040863,342.219849 217.614990,345.868774 232.545914,351.289337 
	C246.039551,356.188110 258.830322,363.022949 272.113251,369.087219 
	C271.571991,368.025116 271.133453,366.467743 270.169250,365.373596 
	C239.033707,330.043091 202.264236,302.536621 158.298538,285.076904 
	C147.523605,280.797943 136.258209,277.743286 126.759903,270.525238 
	C112.900948,259.993408 109.492706,245.031876 118.462730,230.078781 
	C128.142197,213.943008 143.099579,204.222153 160.224808,197.744888 
	C168.723068,194.530579 177.691742,192.559998 186.844406,189.911957 
	C156.384491,180.560837 124.616966,179.302155 93.269539,175.568726 
	C93.158257,175.064117 93.046982,174.559494 92.935707,174.054886 
	C95.120872,172.898239 97.204041,171.458313 99.507095,170.629089 
	C120.903030,162.925491 143.104004,162.034866 165.514236,163.024490 
	C166.594223,163.072189 167.678146,163.030624 169.478699,163.030624 
	C159.225113,150.318832 146.823944,141.511444 132.032791,134.369141 
	C155.856033,129.478424 178.368362,130.844009 201.723999,138.668549 
	C197.424927,131.820038 193.738586,125.947609 189.244598,118.788597 
	C193.821762,120.056816 197.070023,120.956825 200.632889,122.375229 
	C201.406738,124.516731 201.865997,126.139839 202.325256,127.762939 
	C209.282227,135.573135 215.709351,143.969910 223.425446,150.939697 
	C227.139862,154.294861 233.141068,155.695282 238.354294,156.713776 
	C260.241760,160.989899 280.427551,170.161179 301.133057,177.846802 
	C301.326691,177.918655 301.397247,178.322128 301.815094,179.133759 
	C296.422180,178.786316 291.346283,178.459305 286.270386,178.132294 
	C286.171967,178.469879 286.073517,178.807480 285.975067,179.145065 
	C290.381073,180.416473 294.755066,181.816330 299.201752,182.924530 
	C304.024414,184.126434 308.899567,185.135208 313.780975,186.077332 
	C316.960754,186.691010 317.831512,188.732025 318.124756,191.635254 
	C318.783783,198.160736 319.553864,204.680450 320.512177,211.168015 
	C321.000946,214.476929 319.898956,216.431854 316.955475,217.980759 
	C301.791138,225.960480 285.869354,228.480118 269.065948,224.950134 
	C259.631287,222.968170 250.301575,220.280350 240.778610,218.978363 
	C229.507980,217.437424 218.769333,219.404465 210.555099,228.337631 
	C201.958969,237.686157 202.422043,248.300552 211.607285,256.904449 
	C221.543259,266.211578 238.351440,272.685883 253.057068,272.378204 
	C249.096771,270.094910 245.779526,268.628021 242.988632,266.477936 
	C237.633209,262.352081 232.367218,258.054321 227.522018,253.355728 
	C226.048157,251.926453 225.141769,248.651077 225.736298,246.781036 
	C226.151443,245.475189 229.639008,244.311813 231.621841,244.497635 
	C237.212082,245.021515 242.985703,245.547653 248.238861,247.366974 
	C269.933929,254.880539 289.650909,250.394073 307.901184,237.869110 
	C320.475647,229.239380 332.692383,220.053894 344.684265,210.627350 
	C349.319916,206.983368 352.864227,201.960556 356.973450,197.630188 
	C357.931824,196.620209 359.165924,195.871887 360.636597,195.001587 
	C361.000000,253.626343 361.000000,312.252686 361.000000,370.939514 
	C241.122833,370.939514 121.245628,370.939514 1.000000,370.939514 
	C1.000000,337.646667 1.000000,304.291992 0.999999,270.468658 
z"/>
<path fill="currentColor" opacity="0" stroke="none" 
	d="
M182.068298,55.129562 
	C181.098251,58.178291 180.128189,61.227024 178.774246,64.563751 
	C178.104065,64.753960 177.824112,64.769547 177.550461,64.898529 
	C177.547272,64.448441 177.544067,63.998356 177.780701,63.011398 
	C178.010315,61.977604 178.000092,61.480682 177.989868,60.983761 
	C177.993988,60.539658 177.998108,60.095558 178.278473,59.265469 
	C178.626465,58.783691 178.775681,58.665085 178.755463,58.596394 
	C178.694504,58.389435 178.567596,58.201900 178.466415,58.006790 
	C179.100922,53.891777 179.735443,49.776760 180.706390,45.144928 
	C181.146805,44.379681 181.120346,44.146038 180.963455,43.927181 
	C184.293396,29.878017 187.623337,15.828855 190.976639,1.389845 
	C247.596756,1.000000 304.193512,1.000000 361.000000,1.000000 
	C361.000000,62.354069 361.000000,123.708374 361.000000,185.531342 
	C358.227081,184.407120 355.588440,182.488861 352.657349,181.279266 
	C341.603790,176.717682 330.620361,171.893448 319.298615,168.098572 
	C306.230011,163.718170 292.793427,160.445465 279.612793,156.380005 
	C277.325897,155.674637 274.674713,153.852875 273.632843,151.811356 
	C269.420105,143.556244 264.272034,135.355865 262.249756,126.500313 
	C258.850891,111.616714 249.427505,102.800293 236.901474,96.390160 
	C228.086578,91.879181 218.814133,88.262314 209.499756,84.137169 
	C218.668854,63.348217 227.907028,42.402653 237.844040,19.872616 
	C219.540283,29.198551 202.503418,37.878998 184.813354,46.817963 
	C183.462891,49.760834 182.765594,52.445198 182.068298,55.129562 
z"/>
<path fill="#010102" opacity="0" stroke="none" 
	d="
M184.531342,0.999999 
	C183.866730,1.865242 182.860779,3.101866 181.581253,3.540562 
	C158.841354,11.337212 139.159866,23.455664 125.631630,43.875313 
	C121.930763,49.461430 119.412064,55.830734 116.351997,61.838383 
	C114.537491,56.016327 112.682938,50.065754 110.569244,43.283695 
	C107.194901,52.258774 104.123482,60.428143 100.942795,68.888130 
	C93.000145,63.921093 85.485542,59.221745 77.970947,54.522396 
	C77.603905,54.777103 77.236870,55.031811 76.869835,55.286522 
	C77.668060,58.854530 78.219200,62.502148 79.335716,65.967606 
	C80.400299,69.271904 79.404343,70.940582 76.535515,72.780945 
	C41.696331,95.130348 19.073128,126.876717 5.630476,165.602905 
	C5.421969,166.203583 5.326987,166.843658 5.179837,167.461929 
	C20.311113,160.038223 35.320950,152.674088 50.330788,145.309952 
	C50.480602,145.602188 50.630417,145.894409 50.780231,146.186646 
	C45.281136,151.048096 39.487469,155.618149 34.337109,160.824570 
	C17.613533,177.730164 7.347714,198.073196 2.986923,221.431274 
	C2.722935,222.845306 2.120281,224.196106 1.337605,225.288162 
	C1.000000,150.413452 1.000000,75.826904 1.000000,1.000000 
	C62.020683,1.000000 123.041687,1.000000 184.531342,0.999999 
z"/>
<path fill="#010102" opacity="0" stroke="none" 
	d="
M0.999999,228.250000 
	C1.187821,228.263626 1.375644,228.527267 1.281733,228.895447 
	C1.000000,229.000000 1.000000,228.500000 0.999999,228.250000 
z"/>
<path fill="#110F17" opacity="0" stroke="none" 
	d="
M202.677902,127.638184 
	C201.865997,126.139839 201.406738,124.516731 200.960114,122.564392 
	C211.807632,125.024742 222.642517,127.814323 233.497360,130.609039 
	C233.838409,129.255341 234.172150,127.930702 234.630859,126.109993 
	C238.039093,130.144485 241.041321,133.698364 243.784363,137.668716 
	C242.651688,138.406540 241.778214,138.727905 240.904739,139.049286 
	C229.926407,135.623383 218.951324,132.186951 207.966156,128.783081 
	C206.345428,128.280869 204.676941,127.932808 202.677902,127.638184 
z"/>
<path fill="#211D2F" opacity="0" stroke="none" 
	d="
M241.099121,139.322296 
	C241.778214,138.727905 242.651688,138.406540 243.866394,138.006058 
	C246.188858,140.273575 248.170090,142.620193 250.151337,144.966812 
	C249.736954,145.418243 249.322571,145.869659 248.908203,146.321075 
	C246.369965,144.079163 243.831726,141.837250 241.099121,139.322296 
z"/>
<path fill="#1D1A2B" opacity="0" stroke="none" 
	d="
M182.317261,54.872879 
	C182.765594,52.445198 183.462891,49.760834 184.535110,47.023937 
	C184.128769,49.519669 183.347488,52.067936 182.317261,54.872879 
z"/>
<path fill="#010102" opacity="0" stroke="none" 
	d="
M28.705849,278.541016 
	C28.566504,277.128082 28.451046,275.294220 28.509678,273.260834 
	C28.699091,274.747559 28.714411,276.433838 28.705849,278.541016 
z"/>
<path fill="#1D1A2B" opacity="0" stroke="none" 
	d="
M177.390228,65.185799 
	C177.824112,64.769547 178.104065,64.753960 178.598709,64.901962 
	C178.423752,65.539536 178.040436,66.126915 177.657135,66.714294 
	C177.514755,66.300560 177.372391,65.886810 177.390228,65.185799 
z"/>
<path fill="#010102" opacity="0" stroke="none" 
	d="
M88.691803,298.703491 
	C88.840652,299.371552 88.768105,300.336945 88.514900,301.614746 
	C88.379631,300.951721 88.425018,299.976318 88.691803,298.703491 
z"/>
<path fill="#1D1A2B" opacity="0" stroke="none" 
	d="
M177.840942,61.202797 
	C178.000092,61.480682 178.010315,61.977604 177.874786,62.683189 
	C177.716675,62.401848 177.704330,61.911842 177.840942,61.202797 
z"/>
<path fill="#1D1A2B" opacity="0" stroke="none" 
	d="
M178.324753,58.240665 
	C178.567596,58.201900 178.694504,58.389435 178.755463,58.596394 
	C178.775681,58.665085 178.626465,58.783691 178.388809,58.949722 
	C178.209625,58.838154 178.196350,58.656345 178.324753,58.240665 
z"/>
<path fill="#1D1A2B" opacity="0" stroke="none" 
	d="
M180.831696,44.060940 
	C181.120346,44.146038 181.146805,44.379681 180.919617,44.763462 
	C180.606491,44.685738 180.574341,44.451031 180.831696,44.060940 
z"/>
<path fill="#010102" opacity="0" stroke="none" 
	d="
M29.396198,267.501770 
	C29.245848,267.333771 29.313711,266.943329 29.539909,266.300995 
	C29.670298,266.459198 29.642355,266.869232 29.396198,267.501770 
z"/>
<path fill="#010102" opacity="0" stroke="none" 
	d="
M3.716271,274.647064 
	C3.537436,274.596558 3.375958,274.231812 3.201595,273.561920 
	C3.370349,273.615479 3.551988,273.974121 3.716271,274.647064 
z"/>
<path fill="#010102" opacity="0" stroke="none" 
	d="
M88.535919,305.412781 
	C88.776184,305.464111 88.851685,305.774567 88.880829,306.342529 
	C88.735451,306.277161 88.581017,305.967773 88.535919,305.412781 
z"/>
<path fill="#010102" opacity="0" stroke="none" 
	d="
M167.680145,333.440002 
	C167.862854,333.574219 167.507782,333.658966 167.507782,333.658966 
	C167.507782,333.658966 167.184402,333.501984 167.114319,333.397705 
	C167.044220,333.293457 167.497452,333.305786 167.680145,333.440002 
z"/>
<path fill="#010102" opacity="0" stroke="none" 
	d="
M186.519623,337.584137 
	C186.351715,337.736786 185.956573,337.674164 185.306885,337.451874 
	C185.465668,337.317780 185.879028,337.343323 186.519623,337.584137 
z"/>
</svg>